HIERARCHY
ROOT joint_Root
{
	OFFSET 0.0 0.0 0.0
	CHANNELS 6 Xposition Yposition Zposition Zrotation Xrotation Yrotation 
	JOINT Hips
	{
		OFFSET -17.1583 93.1646 452.98
		CHANNELS 6 Xposition Yposition Zposition Zrotation Xrotation Yrotation 
		JOINT Spine
		{
			OFFSET 15.7357 0.0 0.0
			CHANNELS 6 Xposition Yposition Zposition Zrotation Xrotation Yrotation 
			JOINT Chest
			{
				OFFSET 8.98455 -0.406207 0.0
				CHANNELS 6 Xposition Yposition Zposition Zrotation Xrotation Yrotation 
				JOINT Neck
				{
					OFFSET 16.3773 0.0 0.0
					CHANNELS 6 Xposition Yposition Zposition Zrotation Xrotation Yrotation 
					JOINT Head
					{
						OFFSET 6.45672 0.0 0.0
						CHANNELS 6 Xposition Yposition Zposition Zrotation Xrotation Yrotation 
						End Site
						{
							OFFSET 0.0 0.0 0.0
						}
					}
				}
				JOINT Shoulder_L
				{
					OFFSET 12.9942 -0.242716 4.98039
					CHANNELS 6 Xposition Yposition Zposition Zrotation Xrotation Yrotation 
					JOINT UpperArm_L
					{
						OFFSET 5.34809 0.0 0.0
						CHANNELS 6 Xposition Yposition Zposition Zrotation Xrotation Yrotation 
						JOINT LowerArm_L
						{
							OFFSET 24.3286 1.87007e-05 0.0
							CHANNELS 6 Xposition Yposition Zposition Zrotation Xrotation Yrotation 
							JOINT Hand_L
							{
								OFFSET 22.2916 0.0 0.0
								CHANNELS 6 Xposition Yposition Zposition Zrotation Xrotation Yrotation 
								End Site
								{
									OFFSET 0.0 0.0 0.0
								}
							}
						}
					}
				}
				JOINT Shoulder_R
				{
					OFFSET 12.9945 -0.242716 -4.98039
					CHANNELS 6 Xposition Yposition Zposition Zrotation Xrotation Yrotation 
					JOINT UpperArm_R
					{
						OFFSET -5.34813 0.0 0.0
						CHANNELS 6 Xposition Yposition Zposition Zrotation Xrotation Yrotation 
						JOINT LowerArm_R
						{
							OFFSET -24.3289 0.000322201 0.0
							CHANNELS 6 Xposition Yposition Zposition Zrotation Xrotation Yrotation 
							JOINT Hand_R
							{
								OFFSET -22.2915 -0.000108084 0.0
								CHANNELS 6 Xposition Yposition Zposition Zrotation Xrotation Yrotation 
								End Site
								{
									OFFSET 0.0 0.0 0.0
								}
							}
						}
					}
				}
			}
		}
		JOINT UpperLeg_L
		{
			OFFSET -2.19248 -6.46944 0.0
			CHANNELS 6 Xposition Yposition Zposition Zrotation Xrotation Yrotation 
			JOINT LowerLeg_L
			{
				OFFSET 39.0811 0.0 -1.23785e-05
				CHANNELS 6 Xposition Yposition Zposition Zrotation Xrotation Yrotation 
				JOINT Foot_L
				{
					OFFSET 40.9854 0.0 -1.26872e-05
					CHANNELS 6 Xposition Yposition Zposition Zrotation Xrotation Yrotation 
					JOINT Toes_L
					{
						OFFSET 11.7543 0.0 0.0
						CHANNELS 6 Xposition Yposition Zposition Zrotation Xrotation Yrotation 
						End Site
						{
							OFFSET 0.0 0.0 0.0
						}
					}
				}
			}
		}
		JOINT UpperLeg_R
		{
			OFFSET -2.19251 6.46944 0.0
			CHANNELS 6 Xposition Yposition Zposition Zrotation Xrotation Yrotation 
			JOINT LowerLeg_R
			{
				OFFSET -39.0811 -0.00228153 -0.0401928
				CHANNELS 6 Xposition Yposition Zposition Zrotation Xrotation Yrotation 
				JOINT Foot_R
				{
					OFFSET -40.9854 0.0 0.0
					CHANNELS 6 Xposition Yposition Zposition Zrotation Xrotation Yrotation 
					JOINT Toes_R
					{
						OFFSET -11.7543 0.0 0.0
						CHANNELS 6 Xposition Yposition Zposition Zrotation Xrotation Yrotation 
						End Site
						{
							OFFSET 0.0 0.0 0.0
						}
					}
				}
			}
		}
	}
}
MOTION
Frames:	4
Frame Time:	0.0333333
0.000000 0.000000 0.000000 0.000000 0.000000 -0.000000 -3.642860 91.605600 -0.581394 84.076900 0.807347 7.436920 15.735700 0.000005 -0.000001 70.512400 86.068500 -68.318800 8.984550 -0.406207 -0.000000 -0.296104 -2.776750 4.378210 16.377300 -0.000001 -0.000001 12.399900 2.302050 5.731250 6.456720 -0.000001 -0.000000 -5.728010 1.303320 15.557300 12.994200 -0.242716 4.980390 -92.925900 8.114750 -70.095300 5.348090 -0.000007 -0.000001 -72.844100 27.487500 1.110450 24.328600 0.000019 0.000005 11.025200 26.991300 -23.233300 22.291600 -0.000001 0.000005 -2.343650 4.985760 7.620750 12.994500 -0.242716 -4.980390 86.835500 7.339320 -66.597300 -5.348130 -0.000001 -0.000004 -69.411600 -3.762230 -12.153900 -24.328900 0.000322 -0.000009 9.414450 -11.627200 -140.555000 -22.291500 -0.000108 -0.000004 43.825700 5.675520 -18.371700 -2.192480 -6.469440 -0.000000 -172.833000 7.069330 -1.293340 39.081100 -0.000007 -0.000012 0.420516 -0.732441 29.862500 40.985400 -0.000006 -0.000013 -0.829029 2.570840 -77.162100 11.754300 -0.000000 0.000003 0.000134 0.165346 -9.870580 -2.192510 6.469440 -0.000001 -170.458000 9.758820 -173.885000 -39.081100 -0.002282 -0.040193 0.156286 -0.495120 17.167900 -40.985400 0.000008 0.000006 6.027640 2.736230 -72.438200 -11.754300 -0.000006 -0.000006 -0.011225 0.280241 -5.185330
0.000000 0.000000 0.000000 0.000000 0.000000 -0.000000 -3.616270 91.616500 -0.581900 84.116300 0.785439 7.376410 15.735700 0.000005 -0.000001 70.723500 86.068700 -68.541800 8.984550 -0.406207 -0.000000 -0.287612 -2.748340 4.354710 16.377300 -0.000001 -0.000001 12.398700 2.223720 5.680380 6.456720 -0.000001 -0.000000 -5.733990 1.150400 15.452100 12.994200 -0.242716 4.980390 -92.943800 8.148770 -70.059600 5.348090 -0.000007 -0.000001 -72.800300 27.516200 1.008820 24.328600 0.000019 0.000005 11.015000 26.839700 -23.322100 22.291600 -0.000001 0.000005 -2.327990 4.989040 7.551870 12.994500 -0.242716 -4.980390 86.836300 7.332380 -66.583100 -5.348130 -0.000001 -0.000004 -69.304900 -3.546720 -12.190500 -24.328900 0.000322 -0.000009 9.472330 -11.622800 -140.369000 -22.291500 -0.000108 -0.000004 43.590400 5.676160 -18.509000 -2.192480 -6.469440 -0.000000 -172.881000 7.036840 -1.310430 39.081100 -0.000007 -0.000012 0.418382 -0.731044 29.783900 40.985400 -0.000006 -0.000013 -0.809456 2.570270 -77.111300 11.754300 -0.000000 0.000003 0.000197 0.164243 -9.915350 -2.192510 6.469440 -0.000001 -170.518000 9.770950 -173.896000 -39.081100 -0.002282 -0.040193 0.154986 -0.493446 17.084900 -40.985400 0.000008 0.000006 6.139340 2.799890 -72.400200 -11.754300 -0.000006 -0.000006 -0.011029 0.278839 -5.242720
0.000000 0.000000 0.000000 0.000000 0.000000 -0.000000 -3.610130 91.629100 -0.578610 84.111100 0.773001 7.362120 15.735700 0.000005 -0.000001 70.972600 86.051900 -68.782400 8.984550 -0.406207 -0.000000 -0.244887 -2.726740 4.372690 16.377300 -0.000001 -0.000001 12.352900 2.145120 5.670780 6.456720 -0.000001 -0.000000 -5.714650 1.031440 15.313100 12.994200 -0.242716 4.980390 -92.961100 8.198220 -70.061900 5.348090 -0.000007 -0.000001 -72.729000 27.658100 0.950489 24.328600 0.000019 0.000005 10.970000 26.508700 -23.474500 22.291600 -0.000001 0.000005 -2.269820 4.987410 7.586070 12.994500 -0.242716 -4.980390 86.840800 7.328960 -66.603000 -5.348130 -0.000001 -0.000004 -69.202600 -3.307930 -12.226700 -24.328900 0.000322 -0.000009 9.524950 -11.642200 -140.256000 -22.291500 -0.000108 -0.000004 43.539600 5.675660 -18.402000 -2.192480 -6.469440 -0.000000 -172.871000 6.982730 -1.293140 39.081100 -0.000007 -0.000012 0.414870 -0.726882 29.716700 40.985400 -0.000006 -0.000013 -0.801621 2.573430 -77.051500 11.754300 -0.000000 0.000003 0.000203 0.164126 -9.920130 -2.192510 6.469440 -0.000001 -170.522000 9.665890 -173.928000 -39.081100 -0.002282 -0.040193 0.149288 -0.474168 17.110000 -40.985400 0.000008 0.000006 5.811860 2.777380 -72.319700 -11.754300 -0.000006 -0.000006 -0.010911 0.277991 -5.277430
0.000000 0.000000 0.000000 0.000000 0.000000 -0.000000 -3.598620 91.638200 -0.588911 84.116800 0.805004 7.340710 15.735700 0.000005 -0.000001 71.040200 86.031600 -68.843100 8.984550 -0.406207 -0.000000 -0.203108 -2.730810 4.387340 16.377300 -0.000001 -0.000001 12.309700 2.063590 5.630970 6.456720 -0.000001 -0.000000 -5.722100 0.927491 15.183300 12.994200 -0.242716 4.980390 -92.969100 8.218110 -70.056300 5.348090 -0.000007 -0.000001 -72.671600 27.707300 0.845696 24.328600 0.000019 0.000005 11.053500 26.539500 -23.615000 22.291600 -0.000001 0.000005 -2.309430 4.985120 7.634240 12.994500 -0.242716 -4.980390 86.837500 7.334660 -66.597200 -5.348130 -0.000001 -0.000004 -69.110900 -3.077840 -12.280600 -24.328900 0.000322 -0.000009 9.522520 -11.606200 -140.178000 -22.291500 -0.000108 -0.000004 43.335700 5.674610 -18.185400 -2.192480 -6.469440 -0.000000 -172.877000 7.005720 -1.308920 39.081100 -0.000007 -0.000012 0.412451 -0.723829 29.676300 40.985400 -0.000006 -0.000013 -0.793985 2.592530 -77.034500 11.754300 -0.000000 0.000003 0.000171 0.164686 -9.897380 -2.192510 6.469440 -0.000001 -170.505000 9.578790 -173.924000 -39.081100 -0.002282 -0.040193 0.149003 -0.475696 17.026800 -40.985400 0.000008 0.000006 5.897300 2.698120 -72.302900 -11.754300 -0.000006 -0.000006 -0.011276 0.280605 -5.170440
